PathFileType	4	(X/Y/Z)	/Users/itak/Documents/Research/Walk-IL/dataset/trc/00446_00167.trc
DataRate	CameraRate	NumFrames	NumMarkers	Units	OrigDataRate	OrigDataStartFrame	OrigNumFrames
100.000000	100.000000	4	53	mm	100.000000	59	477
Frame#	Time	RPSI			LPSI			L3			STRN			T10			C7			CLAV			RBAK			LBAK			LSHO			LUPA			LAEL			LAOL			LWTS			LWPS			LFRA			LIFD			LHPS			LHTS			RSHO			RUPA			RAEL			RAOL			RWTS			RWPS			RFRA			RIFD			RHTS			RHPS			RBHD			LFHD			RFHD			LBHD			LHIP			RHIP			RASI			LASI			LKNE			LTHI			LANK			LTIP			LTOE			LMT1			LMT5			LHEE			RKNE			RTHI			RANK			RTIP			RTOE			RMT1			RMT5			RHEE			
		X1	Y1	Z1	X2	Y2	Z2	X3	Y3	Z3	X4	Y4	Z4	X5	Y5	Z5	X6	Y6	Z6	X7	Y7	Z7	X8	Y8	Z8	X9	Y9	Z9	X10	Y10	Z10	X11	Y11	Z11	X12	Y12	Z12	X13	Y13	Z13	X14	Y14	Z14	X15	Y15	Z15	X16	Y16	Z16	X17	Y17	Z17	X18	Y18	Z18	X19	Y19	Z19	X20	Y20	Z20	X21	Y21	Z21	X22	Y22	Z22	X23	Y23	Z23	X24	Y24	Z24	X25	Y25	Z25	X26	Y26	Z26	X27	Y27	Z27	X28	Y28	Z28	X29	Y29	Z29	X30	Y30	Z30	X31	Y31	Z31	X32	Y32	Z32	X33	Y33	Z33	X34	Y34	Z34	X35	Y35	Z35	X36	Y36	Z36	X37	Y37	Z37	X38	Y38	Z38	X39	Y39	Z39	X40	Y40	Z40	X41	Y41	Z41	X42	Y42	Z42	X43	Y43	Z43	X44	Y44	Z44	X45	Y45	Z45	X46	Y46	Z46	X47	Y47	Z47	X48	Y48	Z48	X49	Y49	Z49	X50	Y50	Z50	X51	Y51	Z51	X52	Y52	Z52	X53	Y53	Z53	

60	0.59	-1625.759521484375	970.6782836914062	-588.48486328125	-1553.640991210938	970.4166259765625	-709.6094360351562	-1584.316040039062	1064.755126953125	-626.43408203125	-1329.228881835938	1256.326293945312	-517.6566162109375	-1596.351196289062	1190.2275390625	-635.56884765625	-1531.972900390625	1457.100830078125	-594.260498046875	-1357.986572265625	1370.650634765625	-537.825927734375	-1631.1337890625	1341.33544921875	-532.5772094726562	-1525.28564453125	1407.6064453125	-697.86474609375	-1399.90283203125	1428.69189453125	-734.9907836914062	-1370.307739257812	1308.048950195312	-827.9761962890625	-1331.556274414062	1092.07470703125	-844.5885009765625	-1429.563110351562	1075.347778320312	-815.1132202148438	-1267.212890625	896.0863037109375	-766.3190307617188	-1288.046875	876.2926025390625	-836.0224609375	-1305.30419921875	1006.117858886719	-843.3043212890625	-1257.798950195312	727.6859130859375	-758.6438598632812	-1279.350463867188	795.1045532226562	-828.1393432617188	-1248.3349609375	807.0741577148438	-764.8001708984375	-1530.9111328125	1428.508666992188	-418.029052734375	-1575.57373046875	1367.308349609375	-353.7207336425781	-1586.244995117188	1079.45361328125	-297.8815307617188	-1623.206176757812	1060.513671875	-352.2433166503906	-1464.937377929688	885.455078125	-304.8638916015625	-1545.088256835938	864.50830078125	-273.8368530273438	-1582.836669921875	1021.336791992188	-287.4823303222656	-1454.065185546875	727.21435546875	-291.6453552246094	-1447.76611328125	787.117431640625	-285.4052734375	-1521.026611328125	779.4534301757812	-268.18798828125	-1491.77685546875	1649.593383789062	-487.5755004882812	-1304.685302734375	1667.630981445312	-576.683837890625	-1357.879760742188	1668.123413085938	-457.0157775878906	-1434.6962890625	1652.814086914062	-656.2345581054688	-1377.517211914062	867.6204223632812	-743.6608276367188	-1595.339477539062	864.9901123046875	-415.0833435058594	-1471.087158203125	903.7651977539062	-410.7574157714844	-1331.234130859375	903.8837280273438	-626.7794799804688	-1372.85205078125	444.0714721679688	-702.7033081054688	-1343.073852539062	597.4491577148438	-711.1460571289062	-1476.0771484375	36.22066116333008	-762.0189208984375	-1391.746948242188	291.3795471191406	-728.507568359375	-1315.765991210938	43.90639877319336	-585.2683715820312	-1393.340209960938	51.02677917480469	-598.7427368164062	-1337.4365234375	45.83821487426758	-698.9381103515625	-1548.845581054688	37.58226776123047	-741.9201049804688	-1558.785034179688	470.6929321289062	-426.61083984375	-1566.204467773438	730.7418823242188	-382.644287109375	-1622.625	41.13928985595703	-465.2471008300781	-1576.490478515625	324.6741333007812	-421.7662963867188	-1411.357177734375	48.12225341796875	-402.6998596191406	-1450.461303710938	55.23010635375977	-463.7982177734375	-1516.97216796875	48.96611022949219	-378.227294921875	-1656.991943359375	34.04119110107422	-540.3050537109375	
61	0.6	-1625.73095703125	970.7302856445312	-588.5472412109375	-1553.609130859375	970.5321044921875	-709.6624145507812	-1584.152099609375	1064.7861328125	-626.4426879882812	-1329.069946289062	1256.31298828125	-517.556396484375	-1596.209716796875	1190.268432617188	-635.5274658203125	-1531.858032226562	1457.170043945312	-594.17919921875	-1357.803588867188	1370.654418945312	-537.6436767578125	-1631.044799804688	1341.380249023438	-532.5594482421875	-1525.08740234375	1407.670043945312	-697.7847900390625	-1399.681640625	1428.805419921875	-734.860595703125	-1369.862915039062	1308.191162109375	-827.7847290039062	-1331.178466796875	1092.28955078125	-844.5812377929688	-1428.93798828125	1075.355346679688	-815.0635375976562	-1266.862548828125	896.2431030273438	-766.3397216796875	-1287.613403320312	876.5269775390625	-836.0901489257812	-1304.81689453125	1006.260070800781	-843.24609375	-1257.47607421875	727.8429565429688	-758.7808837890625	-1278.867431640625	795.2750244140625	-828.2592163085938	-1247.929443359375	807.2033081054688	-764.8707275390625	-1530.778564453125	1428.506591796875	-417.9412231445312	-1575.498046875	1367.362915039062	-353.6526489257812	-1586.589233398438	1079.594482421875	-297.7431030273438	-1623.498291015625	1060.730712890625	-352.2146301269531	-1466.082641601562	885.0894165039062	-304.4295654296875	-1546.378540039062	864.4959716796875	-273.532470703125	-1583.436889648438	1021.469543457031	-287.3189697265625	-1455.94384765625	726.7777099609375	-291.1394653320312	-1449.371826171875	786.6490478515625	-284.9317626953125	-1522.69873046875	779.3307495117188	-267.8319396972656	-1491.633544921875	1649.59326171875	-487.4466552734375	-1304.383422851562	1667.641723632812	-576.4229125976562	-1357.673095703125	1668.075439453125	-456.7911682128906	-1434.459594726562	1652.89111328125	-656.0459594726562	-1377.50048828125	867.6602783203125	-743.7569580078125	-1595.194580078125	864.9464111328125	-415.12060546875	-1471.024169921875	903.7606201171875	-410.8238830566406	-1331.09375	903.88232421875	-626.87109375	-1372.868530273438	444.0545959472656	-702.8280029296875	-1343.082763671875	597.453125	-711.29736328125	-1476.065673828125	36.20717620849609	-762.0383911132812	-1391.463012695312	291.5525207519531	-728.3499755859375	-1315.76611328125	43.90687942504883	-585.2598266601562	-1393.316040039062	51.04164123535156	-598.7449951171875	-1337.424194335938	45.82170867919922	-698.947998046875	-1548.839233398438	37.56929016113281	-741.9357299804688	-1558.702514648438	470.6978759765625	-426.6561279296875	-1566.125244140625	730.7506713867188	-382.6788940429688	-1622.625732421875	41.16864776611328	-465.2571411132812	-1576.440551757812	324.6752624511719	-421.8290710449219	-1411.356079101562	48.12197113037109	-402.706787109375	-1450.4580078125	55.23142623901367	-463.7981262207031	-1516.96826171875	48.97065353393555	-378.2332763671875	-1656.992065429688	34.04186630249023	-540.3051147460938	
62	0.61	-1625.65625	970.7159423828125	-588.5927124023438	-1553.5751953125	970.6300659179688	-709.73388671875	-1584.014282226562	1064.816040039062	-626.4482421875	-1328.92626953125	1256.2939453125	-517.4577026367188	-1596.10205078125	1190.306030273438	-635.5003051757812	-1531.764282226562	1457.228393554688	-594.1014404296875	-1357.638549804688	1370.656127929688	-537.4791259765625	-1630.973754882812	1341.406494140625	-532.5455322265625	-1524.925537109375	1407.740112304688	-697.7116088867188	-1399.474609375	1428.922607421875	-734.7490234375	-1369.452758789062	1308.335815429688	-827.6170654296875	-1330.808227539062	1092.50439453125	-844.6010131835938	-1428.390014648438	1075.413330078125	-815.0756225585938	-1266.545776367188	896.4081420898438	-766.3818969726562	-1287.182739257812	876.7562866210938	-836.1615600585938	-1304.352172851562	1006.401000976562	-843.19384765625	-1257.159423828125	728.023193359375	-758.9080810546875	-1278.371337890625	795.4515991210938	-828.3701171875	-1247.482543945312	807.341552734375	-764.9451293945312	-1530.657348632812	1428.4970703125	-417.86279296875	-1575.43212890625	1367.405639648438	-353.5953369140625	-1586.961303710938	1079.722412109375	-297.6288757324219	-1623.776977539062	1060.943725585938	-352.2278137207031	-1467.261474609375	884.7178955078125	-304.017333984375	-1547.698364257812	864.4767456054688	-273.271240234375	-1584.05615234375	1021.589416503906	-287.1920776367188	-1457.851928710938	726.3302001953125	-290.6988525390625	-1451.014526367188	786.1813354492188	-284.4984741210938	-1524.406860351562	779.1986694335938	-267.533447265625	-1491.478393554688	1649.585083007812	-487.308837890625	-1304.118286132812	1667.639526367188	-576.1989135742188	-1357.479614257812	1668.026611328125	-456.5748596191406	-1434.248779296875	1652.961059570312	-655.8801879882812	-1377.482666015625	867.6966552734375	-743.8355712890625	-1595.089477539062	864.9048461914062	-415.1623840332031	-1470.978393554688	903.765380859375	-410.89208984375	-1330.973388671875	903.884033203125	-626.95068359375	-1372.872436523438	444.0270080566406	-702.9345092773438	-1343.072875976562	597.4529418945312	-711.4208374023438	-1476.050903320312	36.19216918945312	-762.0615844726562	-1391.151123046875	291.7249145507812	-728.1658325195312	-1315.768188476562	43.90678024291992	-585.2540893554688	-1393.295776367188	51.05546569824219	-598.7493286132812	-1337.411010742188	45.80393981933594	-698.9563598632812	-1548.834228515625	37.55005264282227	-741.9573974609375	-1558.63720703125	470.7002258300781	-426.7100830078125	-1566.076416015625	730.760986328125	-382.7159423828125	-1622.623168945312	41.18058013916016	-465.2614440917969	-1576.404663085938	324.6759948730469	-421.8962707519531	-1411.358154296875	48.12221527099609	-402.7115478515625	-1450.457397460938	55.23258972167969	-463.7986755371094	-1516.967895507812	48.9785270690918	-378.2320556640625	-1656.993286132812	34.03975296020508	-540.3060913085938	
63	0.62	-1625.531494140625	970.6380615234375	-588.6200561523438	-1553.540893554688	970.7103271484375	-709.8222045898438	-1583.900268554688	1064.84423828125	-626.4498291015625	-1328.796630859375	1256.269653320312	-517.3618774414062	-1596.020141601562	1190.337280273438	-635.4861450195312	-1531.677734375	1457.271606445312	-594.0235595703125	-1357.490844726562	1370.657104492188	-537.3356323242188	-1630.915161132812	1341.418579101562	-532.5362548828125	-1524.788452148438	1407.817504882812	-697.642578125	-1399.27734375	1429.0419921875	-734.6525268554688	-1369.086181640625	1308.480590820312	-827.4785766601562	-1330.437377929688	1092.716674804688	-844.6412963867188	-1427.953247070312	1075.54248046875	-815.16650390625	-1266.245849609375	896.5819702148438	-766.443115234375	-1286.749755859375	876.9769897460938	-836.2359619140625	-1303.902954101562	1006.55029296875	-843.1547241210938	-1256.824096679688	728.2277221679688	-759.0337524414062	-1277.8564453125	795.635009765625	-828.474365234375	-1247.006103515625	807.4878540039062	-765.0234375	-1530.548217773438	1428.480834960938	-417.7935791015625	-1575.38037109375	1367.437744140625	-353.5501403808594	-1587.370483398438	1079.835815429688	-297.5399780273438	-1624.057250976562	1061.155639648438	-352.2774047851562	-1468.467163085938	884.3474731445312	-303.6322021484375	-1549.040283203125	864.4525756835938	-273.0547790527344	-1584.6982421875	1021.697021484375	-287.1046447753906	-1459.770629882812	725.8839111328125	-290.3205261230469	-1452.684814453125	785.7286987304688	-284.0943908691406	-1526.1376953125	779.0628662109375	-267.2889099121094	-1491.313598632812	1649.569213867188	-487.1625366210938	-1303.897705078125	1667.621337890625	-576.0117797851562	-1357.307495117188	1667.976318359375	-456.3690490722656	-1434.06103515625	1653.022094726562	-655.736328125	-1377.4609375	867.72900390625	-743.8994140625	-1595.020385742188	864.8685913085938	-415.2084655761719	-1470.9462890625	903.7763671875	-410.9638977050781	-1330.870727539062	903.888671875	-627.0192260742188	-1372.869995117188	443.9935607910156	-703.0213012695312	-1343.052612304688	597.4486694335938	-711.5205688476562	-1476.033935546875	36.17682647705078	-762.0872192382812	-1390.865112304688	291.8699035644531	-727.9963989257812	-1315.772705078125	43.90532684326172	-585.2508544921875	-1393.2802734375	51.06904220581055	-598.7557983398438	-1337.398193359375	45.7857551574707	-698.9630737304688	-1548.831176757812	37.52772903442383	-741.9816284179688	-1558.590698242188	470.7013854980469	-426.7742614746094	-1566.054931640625	730.7723999023438	-382.7567749023438	-1622.619384765625	41.17695236206055	-465.2611389160156	-1576.3818359375	324.676513671875	-421.9698181152344	-1411.363159179688	48.12268829345703	-402.7141723632812	-1450.458618164062	55.23352432250977	-463.7998352050781	-1516.970336914062	48.98942184448242	-378.22607421875	-1656.995361328125	34.03467178344727	-540.3081665039062	
